{
  "asset": {
    "version": "2.0",
    "generator": "OFG original model fixture"
  },
  "buffers": [
    {
      "uri": "laboratory.bin",
      "byteLength": 1420
    }
  ],
  "bufferViews": [
    {
      "buffer": 0,
      "byteOffset": 0,
      "byteLength": 288
    },
    {
      "buffer": 0,
      "byteOffset": 288,
      "byteLength": 192
    },
    {
      "buffer": 0,
      "byteOffset": 480,
      "byteLength": 288
    },
    {
      "buffer": 0,
      "byteOffset": 768,
      "byteLength": 384
    },
    {
      "buffer": 0,
      "byteOffset": 1152,
      "byteLength": 96
    },
    {
      "buffer": 0,
      "byteOffset": 1248,
      "byteLength": 36
    },
    {
      "buffer": 0,
      "byteOffset": 1284,
      "byteLength": 8
    },
    {
      "buffer": 0,
      "byteOffset": 1292,
      "byteLength": 24
    },
    {
      "buffer": 0,
      "byteOffset": 1316,
      "byteLength": 96
    },
    {
      "buffer": 0,
      "byteOffset": 1412,
      "byteLength": 8
    }
  ],
  "accessors": [
    {
      "bufferView": 0,
      "componentType": 5126,
      "count": 24,
      "type": "VEC3",
      "min": [
        -0.5,
        -0.5,
        -0.5
      ],
      "max": [
        0.5,
        0.5,
        0.5
      ]
    },
    {
      "bufferView": 1,
      "componentType": 5126,
      "count": 24,
      "type": "VEC2"
    },
    {
      "bufferView": 2,
      "componentType": 5126,
      "count": 24,
      "type": "VEC3",
      "min": [
        0,
        0.2,
        0.1
      ],
      "max": [
        0,
        0.2,
        0.1
      ]
    },
    {
      "bufferView": 3,
      "componentType": 5126,
      "count": 24,
      "type": "VEC4"
    },
    {
      "bufferView": 4,
      "componentType": 5121,
      "count": 24,
      "type": "VEC4"
    },
    {
      "bufferView": 5,
      "componentType": 5121,
      "count": 36,
      "type": "SCALAR"
    },
    {
      "bufferView": 6,
      "componentType": 5126,
      "count": 2,
      "type": "SCALAR",
      "min": [
        0
      ],
      "max": [
        1
      ]
    },
    {
      "bufferView": 7,
      "componentType": 5126,
      "count": 2,
      "type": "VEC3"
    },
    {
      "bufferView": 8,
      "componentType": 5126,
      "count": 6,
      "type": "VEC4"
    },
    {
      "bufferView": 9,
      "componentType": 5126,
      "count": 2,
      "type": "SCALAR"
    }
  ],
  "images": [
    {
      "uri": "../checker.png"
    }
  ],
  "samplers": [
    {
      "wrapS": 33648,
      "wrapT": 10497,
      "minFilter": 9729,
      "magFilter": 9729
    }
  ],
  "textures": [
    {
      "source": 0,
      "sampler": 0
    }
  ],
  "materials": [
    {
      "pbrMetallicRoughness": {
        "baseColorFactor": [
          0.7,
          0.85,
          1,
          1
        ],
        "metallicFactor": 0.1,
        "roughnessFactor": 0.6,
        "baseColorTexture": {
          "index": 0
        }
      },
      "doubleSided": false
    }
  ],
  "meshes": [
    {
      "name": "Cube with retained deformation data",
      "primitives": [
        {
          "attributes": {
            "POSITION": 0,
            "TEXCOORD_0": 1,
            "JOINTS_0": 4,
            "WEIGHTS_0": 3
          },
          "indices": 5,
          "material": 0,
          "targets": [
            {
              "POSITION": 2
            }
          ]
        }
      ],
      "weights": [
        0.1
      ]
    }
  ],
  "nodes": [
    {
      "name": "Left cube",
      "mesh": 0,
      "skin": 0,
      "weights": [
        0.25
      ],
      "translation": [
        -0.8,
        0,
        0
      ]
    },
    {
      "name": "Joint"
    },
    {
      "name": "Model root",
      "children": [
        0,
        1,
        3
      ]
    },
    {
      "name": "Right cube",
      "mesh": 0,
      "skin": 0,
      "weights": [
        0.75
      ],
      "translation": [
        0.8,
        0,
        0
      ]
    }
  ],
  "skins": [
    {
      "name": "One joint skin",
      "joints": [
        1
      ],
      "skeleton": 1
    }
  ],
  "animations": [
    {
      "name": "Translate",
      "samplers": [
        {
          "input": 6,
          "output": 7,
          "interpolation": "STEP"
        }
      ],
      "channels": [
        {
          "sampler": 0,
          "target": {
            "node": 1,
            "path": "translation"
          }
        }
      ]
    },
    {
      "name": "Rotate",
      "samplers": [
        {
          "input": 6,
          "output": 8,
          "interpolation": "CUBICSPLINE"
        }
      ],
      "channels": [
        {
          "sampler": 0,
          "target": {
            "node": 1,
            "path": "rotation"
          }
        }
      ]
    },
    {
      "name": "Morph",
      "samplers": [
        {
          "input": 6,
          "output": 9,
          "interpolation": "LINEAR"
        }
      ],
      "channels": [
        {
          "sampler": 0,
          "target": {
            "node": 0,
            "path": "weights"
          }
        }
      ]
    }
  ],
  "scenes": [
    {
      "name": "Cubes",
      "nodes": [
        2
      ]
    },
    {
      "name": "Empty"
    }
  ],
  "scene": 0
}
